# xmcd
#
# Track frame offsets:
#	150
#	19500
#	37487
#	53573
#	67076
#	85133
#	102224
#	114369
#	136491
#	151574
#	164635
#	180675
#	194571
#	211529
#	236841
#
# Disc length: 3304 seconds
#
# Revision: 1
# Processed by: cddbd v1.5.2PL0 Copyright (c) Steve Scherf et al.
# Submitted via: audiograbber 1.83.01
#
DISCID=ca0ce60f
DTITLE=Crazy Hambones - Blowin The Family Jewels
DYEAR=2007
DGENRE=Blues
TTITLE0=Hear Me Calling
TTITLE1=One Sweet Thing
TTITLE2=Ramblin' Blues
TTITLE3=Let's Do The Boogie
TTITLE4=My Baby
TTITLE5=If I Had Listened
TTITLE6=Be My Girl
TTITLE7=My Fault
TTITLE8=Courting In A Cadillac
TTITLE9=Hambone Boogie
TTITLE10=30 Days
TTITLE11=Come Back Baby
TTITLE12=Roll Roll Roll
TTITLE13=Sun's Gonna Shine
TTITLE14=Sit Down Easy
EXTD=
EXTT0=
EXTT1=
EXTT2=
EXTT3=
EXTT4=
EXTT5=
EXTT6=
EXTT7=
EXTT8=
EXTT9=
EXTT10=
EXTT11=
EXTT12=
EXTT13=
EXTT14=
PLAYORDER=
